<?xml version="1.0" encoding="UTF-8"?>
<svg version="1.1" viewBox="0 0 36 36" xmlns="http://www.w3.org/2000/svg" xmlns:cc="http://creativecommons.org/ns#" xmlns:dc="http://purl.org/dc/elements/1.1/" xmlns:rdf="http://www.w3.org/1999/02/22-rdf-syntax-ns#">
 <metadata>
  <rdf:RDF>
   <cc:Work rdf:about="">
    <dc:format>image/svg+xml</dc:format>
    <dc:type rdf:resource="http://purl.org/dc/dcmitype/StillImage"/>
    <dc:title/>
   </cc:Work>
  </rdf:RDF>
 </metadata>
 <path d="m18 0c-9.941 0-18 8.059-18 18s8.059 18 18 18 18-8.059 18-18-8.059-18-18-18zm-6 11c3.577 0 4.8425 2.4487 4.8945 2.5527 0.247 0.494 0.04673 1.0948-0.44726 1.3418-0.492 0.245-1.0849 0.04945-1.3359-0.43555-0.043-0.08-0.83033-1.459-3.1113-1.459-2.317 0-3.0985 1.4333-3.1055 1.4473-0.175 0.351-0.52948 0.55273-0.89648 0.55273-0.15 0-0.30231-0.03347-0.44531-0.10547-0.494-0.247-0.69427-0.8478-0.44727-1.3418 0.052-0.104 1.3185-2.5527 4.8945-2.5527zm12 0c3.577 0 4.8425 2.4487 4.8945 2.5527 0.247 0.494 0.04673 1.0948-0.44726 1.3418-0.144 0.071-0.29531 0.10547-0.44531 0.10547-0.367 0-0.72048-0.20173-0.89648-0.55273-0.025-0.046-0.80647-1.4473-3.1055-1.4473s-3.0793 1.4019-3.1113 1.4609c-0.26 0.481-0.8597 0.66992-1.3457 0.41992-0.485-0.252-0.6815-0.83912-0.4375-1.3281 0.052-0.103 1.3175-2.5527 4.8945-2.5527zm3.0215 10.5c0.11262 0.0049 0.22545 0.04841 0.31445 0.12891 0.178 0.16 0.21675 0.42391 0.09375 0.62891-0.128 0.215-3.2177 5.2422-9.4297 5.2422s-9.3007-5.0272-9.4297-5.2422c-0.123-0.204-0.08325-0.46891 0.09375-0.62891 0.178-0.159 0.44572-0.1713 0.63672-0.0293 0.038 0.029003 3.9332 2.9004 8.6992 2.9004 4.778 0 8.6602-2.8714 8.6992-2.9004 0.0955-0.071 0.20964-0.10448 0.32226-0.09961z" fill="#9aa7b0"/>
 <path d="m7 13a5 5 0 0 0-5 5 5 5 0 0 0 5 5 5 5 0 0 0 1.8359-0.34961c-0.14571-0.20623-0.24678-0.36116-0.26562-0.39258-0.123-0.204-0.08325-0.46891 0.09375-0.62891 0.178-0.159 0.44572-0.1713 0.63672-0.029297 0.008848 0.006753 0.2668 0.1908 0.65625 0.43359a5 5 0 0 0 2.043-4.0332 5 5 0 0 0-2.4199-4.2812c-0.486 0.36-0.68205 0.72152-0.68555 0.72852-0.175 0.351-0.52948 0.55273-0.89648 0.55273-0.15 0-0.30231-0.033469-0.44531-0.10547-0.494-0.247-0.69427-0.8478-0.44727-1.3418 0.014382-0.028764 0.13412-0.24526 0.35742-0.53125a5 5 0 0 0-0.46289-0.021484z" fill="#ff7892"/>
 <path d="m29 13a5 5 0 0 0-0.46094 0.023438c0.22264 0.28544 0.34111 0.50058 0.35547 0.5293 0.247 0.494 0.046735 1.0948-0.44726 1.3418-0.144 0.071-0.29531 0.10547-0.44531 0.10547-0.367 0-0.72048-0.20173-0.89648-0.55273-0.012362-0.022746-0.21331-0.37636-0.6875-0.72852a5 5 0 0 0-2.418 4.2812 5 5 0 0 0 2.0449 4.0312c0.38755-0.24218 0.64523-0.4249 0.6543-0.43164 0.191-0.142 0.45872-0.1317 0.63672 0.029297 0.178 0.16 0.21675 0.42391 0.09375 0.62891-0.018703 0.031415-0.11998 0.18635-0.26563 0.39258a5 5 0 0 0 1.8359 0.34961 5 5 0 0 0 5-5 5 5 0 0 0-5-5z" fill="#ff7892"/>
</svg>
