<?xml version="1.0" encoding="UTF-8"?>
<svg version="1.1" viewBox="0 0 36 36" xmlns="http://www.w3.org/2000/svg" xmlns:cc="http://creativecommons.org/ns#" xmlns:dc="http://purl.org/dc/elements/1.1/" xmlns:rdf="http://www.w3.org/1999/02/22-rdf-syntax-ns#">
 <path d="m18 0c-9.941 0-18 8.059-18 18 0 9.941 8.059 18 18 18s18-8.059 18-18-8.059-18-18-18zm-4.8711 7.8945c1.1637-0.047438 1.9802 0.10775 2.0664 0.125 0.542 0.108 0.89416 0.63573 0.78516 1.1777-0.108 0.54-0.63383 0.89116-1.1738 0.78516-0.186-0.035-4.4359-0.80881-7.0059 2.6172-0.196 0.262-0.49873 0.40039-0.80273 0.40039-0.208 0-0.41766-0.064219-0.59766-0.19922-0.442-0.331-0.53217-0.95839-0.20117-1.4004 2.0869-2.7838 4.9901-3.4268 6.9297-3.5059zm9.7422 0c1.9395 0.079522 4.8409 0.72141 6.9277 3.5039 0.332 0.442 0.24278 1.0694-0.19922 1.4004-0.179 0.136-0.38866 0.20117-0.59766 0.20117-0.305 0-0.60573-0.13839-0.80273-0.40039-2.592-3.456-6.9609-2.6271-7.0039-2.6191-0.547 0.108-1.0668-0.24416-1.1758-0.78516-0.108-0.541 0.2422-1.0668 0.7832-1.1758 0.086625-0.017625 0.90465-0.17271 2.0684-0.125zm-14.879 7.6055c0.10775-0.001625 0.21709 0.031109 0.30859 0.099609 0.01 7e-3 1.2582 0.90039 3.6992 0.90039 2.442 0 3.6892-0.89334 3.7012-0.90234 0.182-0.133 0.43533-0.12933 0.61133 0.013672 0.177 0.142 0.23653 0.3848 0.14453 0.5918-0.06 0.135-1.499 3.2969-4.457 3.2969-2.957 0-4.397-3.1619-4.457-3.2969-0.092-0.208-0.031516-0.45175 0.14648-0.59375 0.0885-0.071 0.19498-0.10775 0.30273-0.10938zm12 0c0.10787-0.001625 0.21709 0.031109 0.30859 0.099609 0.01 7e-3 1.2592 0.90039 3.6992 0.90039 2.441 0 3.6892-0.89334 3.7012-0.90234 0.184-0.133 0.43633-0.12833 0.61133 0.013672 0.177 0.142 0.23653 0.3848 0.14453 0.5918-0.06 0.135-1.499 3.2969-4.457 3.2969-2.957 0-4.397-3.1619-4.457-3.2969-0.092-0.208-0.031516-0.45175 0.14648-0.59375 0.088-0.071 0.19486-0.10775 0.30274-0.10938zm-6.9238 8.0039c0.10562 0.014 0.20566 0.062578 0.28516 0.14258 0 0 1.0055 0.85352 4.6465 0.85352 3.644 0 4.6462-0.85528 4.6562-0.86328 0.165-0.146 0.40966-0.17155 0.59766-0.060547 0.187 0.113 0.28347 0.33192 0.23047 0.54492-0.011 0.044-1.1444 4.3789-5.4844 4.3789s-5.4744-4.3349-5.4844-4.3789c-0.055-0.218 0.043281-0.44564 0.23828-0.55664 0.098-0.054 0.20883-0.074547 0.31445-0.060547z" fill="#9aa7b0"/>
</svg>
