<?xml version="1.0" encoding="UTF-8"?>
<svg version="1.1" viewBox="0 0 36 36" xmlns="http://www.w3.org/2000/svg" xmlns:cc="http://creativecommons.org/ns#" xmlns:dc="http://purl.org/dc/elements/1.1/" xmlns:rdf="http://www.w3.org/1999/02/22-rdf-syntax-ns#">
 <path d="m18 0c-9.941 0-18 8.059-18 18 0 9.941 8.059 18 18 18s18-8.059 18-18-8.059-18-18-18zm-6 10c0.552 0 1 0.448 1 1 0 0.551-0.44509 0.998-0.99609 1-0.156 2e-3 -3.5691 0.085609-6.2051 3.5996-0.195 0.262-0.49678 0.40039-0.80078 0.40039-0.208 0-0.41766-0.064219-0.59766-0.19922-0.442-0.331-0.53217-0.95839-0.20117-1.4004 3.262-4.35 7.6168-4.4004 7.8008-4.4004zm12 0c0.184 0 4.5378 0.050391 7.8008 4.4004 0.332 0.442 0.24083 1.0694-0.20117 1.4004-0.18 0.135-0.38866 0.19922-0.59766 0.19922-0.305 0-0.60573-0.13839-0.80273-0.40039-2.641-3.521-6.0601-3.5986-6.2051-3.5996-0.55-6e-3 -0.99324-0.45686-0.99024-1.0059 3e-3 -0.551 0.44609-0.99414 0.99609-0.99414zm-11.475 5.75c1.5105-0.012875 2.6268 0.2568 2.7168 0.2793 0.535 0.134 0.86252 0.67689 0.72852 1.2129-0.014 0.058-0.051219 0.1023-0.074219 0.1543 0.061 0.192 0.10352 0.39152 0.10352 0.60352 0 1.104-0.896 2-2 2s-2-0.896-2-2c0-0.078 0.014437-0.15252 0.023438-0.22852-1.106 0.066-2.3768 0.33155-3.4688 1.0605-0.171 0.113-0.36273 0.16797-0.55273 0.16797-0.323 0-0.64003-0.15531-0.83203-0.44531-0.306-0.46-0.18361-1.0807 0.27539-1.3867 1.665-1.109 3.5696-1.4051 5.0801-1.418zm12 0c1.5104-0.012875 2.6268 0.2568 2.7168 0.2793 0.536 0.134 0.86156 0.67689 0.72656 1.2129-0.014 0.057-0.049266 0.10034-0.072266 0.15234 0.062 0.192 0.10352 0.39347 0.10352 0.60547 0 1.104-0.896 2-2 2s-2-0.896-2-2c0-0.078 0.014437-0.15252 0.023438-0.22852-1.108 0.066-2.3768 0.33155-3.4688 1.0605-0.171 0.113-0.36274 0.16797-0.55274 0.16797-0.323 0-0.64198-0.15631-0.83398-0.44531-0.307-0.46-0.18266-1.0807 0.27734-1.3867 1.6655-1.109 3.5697-1.4051 5.0801-1.418zm-0.46289 7.7539c0.09575 0.012 0.18717 0.051188 0.26367 0.11719 0.153 0.133 0.21244 0.34511 0.14844 0.53711-0.386 1.157-1.8186 3.3418-4.4766 3.3418h-7.0078c-0.087-2e-3 -0.16728-0.024453-0.23828-0.064453v-0.001953h-0.001953c-0.149-0.086-0.25-0.24859-0.25-0.43359 0-0.276 0.224-0.5 0.5-0.5 0.049 0 4.9044-0.012266 6.7754-0.94727l4-2c0.0915-0.045 0.19136-0.060828 0.28711-0.048828z" fill="#9aa7b0"/>
</svg>
