<?xml version="1.0" encoding="UTF-8"?>
<svg version="1.1" viewBox="0 0 36 36" xmlns="http://www.w3.org/2000/svg" xmlns:cc="http://creativecommons.org/ns#" xmlns:dc="http://purl.org/dc/elements/1.1/" xmlns:rdf="http://www.w3.org/1999/02/22-rdf-syntax-ns#">
 <path d="m18 0c-9.94 0-18 8.06-18 18 0 9.941 8.06 18 18 18 9.941 0 18-8.059 18-18 0-9.94-8.059-18-18-18zm6.8418 9.9199c1.7288-0.00263 3.557 0.61152 4.957 2.4785 0.332 0.442 0.24278 1.0694-0.19922 1.4004-0.179 0.136-0.38866 0.20117-0.59766 0.20117-0.305 0-0.60573-0.13839-0.80273-0.40039-2.432-3.244-6.5135-0.84519-6.6855-0.74219-0.475 0.285-1.0881 0.12925-1.3711-0.34375-0.284-0.474-0.1322-1.0871 0.3418-1.3711 0.999-0.5995 2.6287-1.22 4.3574-1.2227zm-13.684 0.00195c1.7288 0.00263 3.357 0.6212 4.3555 1.2207 0.474 0.284 0.62775 0.89905 0.34375 1.373-0.284 0.473-0.89709 0.62775-1.3711 0.34375-0.179-0.106-4.2735-2.4748-6.6875 0.74219-0.195 0.261-0.49678 0.39844-0.80078 0.39844-0.208 0-0.41766-0.06422-0.59766-0.19922-0.442-0.331-0.53217-0.95839-0.20117-1.4004 1.4005-1.867 3.2302-2.4811 4.959-2.4785zm-3.1582 5.0781h7c0.552 0 1 0.448 1 1 0 0.063-0.02416 0.11969-0.03516 0.17969 0.022 0.104 0.03516 0.21031 0.03516 0.32031 0 0.829-0.672 1.5-1.5 1.5-0.652 0-1.2012-0.419-1.4082-1h-5.0918c-0.552 0-1-0.448-1-1s0.448-1 1-1zm13 0h7c0.553 0 1 0.448 1 1 0 0.063-0.02316 0.11969-0.03516 0.17969 0.022 0.104 0.03516 0.21031 0.03516 0.32031 0 0.829-0.672 1.5-1.5 1.5-0.652 0-1.2012-0.419-1.4082-1h-5.0918c-0.553 0-1-0.448-1-1s0.447-1 1-1zm-3 8.5c6.317 0 7.4394 4.1999 7.4844 4.3789 0.055 0.218-0.04228 0.44464-0.23828 0.55664-0.077 0.043-0.16209 0.06445-0.24609 0.06445-0.128 0-0.25556-0.04953-0.35156-0.14453-0.018001-0.017997-1.9544-1.8555-6.6484-1.8555s-6.6294 1.8365-6.6484 1.8555c-0.161 0.155-0.40461 0.18912-0.59961 0.07813-0.194-0.112-0.29133-0.33769-0.23633-0.55469 0.045-0.179 1.1664-4.3789 7.4844-4.3789z" fill="#9aa7b0"/>
</svg>
