<?xml version="1.0" encoding="UTF-8"?>
<svg version="1.1" viewBox="0 0 36 36" xmlns="http://www.w3.org/2000/svg" xmlns:cc="http://creativecommons.org/ns#" xmlns:dc="http://purl.org/dc/elements/1.1/" xmlns:rdf="http://www.w3.org/1999/02/22-rdf-syntax-ns#">
 <path d="m18 0c-9.941 0-18 8.059-18 18s8.059 18 18 18 18-8.059 18-18-8.059-18-18-18zm5.0996 8.002c0.28576 0.028934 0.55722 0.18183 0.73047 0.43945 0.019 0.027 1.93 2.7849 6.541 4.6289 0.513 0.206 0.76359 0.78583 0.55859 1.2988-0.157 0.392-0.53369 0.63086-0.92969 0.63086-0.124 0-0.25009-0.023266-0.37109-0.072266-5.229-2.091-7.3719-5.24-7.4609-5.373-0.307-0.46-0.18266-1.0807 0.27734-1.3867 0.11475-0.0765 0.23989-0.12791 0.36719-0.15234 0.095473-0.018328 0.19186-0.023316 0.28711-0.013672zm-10.293 0.019531c0.251-0.048875 0.521-0.0031094 0.75 0.15039 0.457 0.308 0.58139 0.92481 0.27539 1.3828-0.089 0.133-2.2329 3.284-7.4609 5.375-0.122 0.048-0.24709 0.070312-0.37109 0.070312-0.397 0-0.77269-0.23791-0.92969-0.62891-0.205-0.513 0.045594-1.0958 0.55859-1.3008 4.612-1.844 6.522-4.6019 6.541-4.6289 0.154-0.228 0.38572-0.37105 0.63672-0.41992zm-1.334 7.0937c1.2346 0.038839 2.6005 0.30367 3.9746 0.99024 0.494 0.247 0.69426 0.8478 0.44726 1.3418-0.176 0.35-0.52948 0.55273-0.89648 0.55273-0.15 0-0.30231-0.034469-0.44531-0.10547-3.512-1.756-7.0705-0.018-7.1055 0-0.495 0.249-1.0948 0.045735-1.3418-0.44726-0.247-0.494-0.046734-1.0948 0.44727-1.3418 0.12512-0.061875 2.2039-1.0757 4.9199-0.99024zm14.002 0c1.2345 0.038826 2.5995 0.30398 3.9727 0.99024 0.494 0.247 0.69426 0.8478 0.44726 1.3418-0.176 0.35-0.52948 0.55273-0.89648 0.55273-0.15 0-0.30231-0.034469-0.44531-0.10547-3.513-1.756-7.0705-0.018-7.1055 0-0.494 0.248-1.0938 0.046735-1.3418-0.44726-0.247-0.494-0.046735-1.0948 0.44726-1.3418 0.12512-0.061875 2.2059-1.0757 4.9219-0.99024zm-7.4746 5.8848c2.209 0 4 3.239 4 6 0 2.763-1.791 3-4 3-2.21 0-4-0.237-4-3 0-2.761 1.79-6 4-6z" fill="#9aa7b0"/>
 <path d="m10.771 17.119c-1.2359 0.053291-2.2002 0.34109-2.7715 0.55273v17.328l4-0.046875v-17.797c-0.42559-0.044816-0.83793-0.053951-1.2285-0.037109zm13.998 0c-0.27264 0.011756-0.5202 0.047387-0.76953 0.080078v17.754l4 0.046875v-17.348c-1.1314-0.45275-2.2485-0.57555-3.2305-0.5332z" fill="#5dadec"/>
 <ellipse cx="18" cy="34" rx="18" ry="2" fill="#5DADEC"/>
 <ellipse cx="18" cy="27" rx="3" ry="2" fill="#E75A70"/>
</svg>
