<?xml version="1.0" encoding="UTF-8"?>
<svg version="1.1" viewBox="0 0 36 36" xmlns="http://www.w3.org/2000/svg" xmlns:cc="http://creativecommons.org/ns#" xmlns:dc="http://purl.org/dc/elements/1.1/" xmlns:rdf="http://www.w3.org/1999/02/22-rdf-syntax-ns#">
 <path d="m18 0c-9.94 0-18 8.06-18 18 0 9.941 8.06 18 18 18 9.941 0 18-8.059 18-18 0-9.94-8.059-18-18-18zm-11 14c0.221 0 5.452 0.037969 8.707 3.293 0.391 0.391 0.391 1.0231 0 1.4141-0.195 0.195-0.45103 0.29297-0.70703 0.29297-0.012 0-0.024109-0.007812-0.037109-0.007812 0.018 0.167 0.037109 0.33381 0.037109 0.50781 0 1.934-1.119 3.5-2.5 3.5s-2.5-1.566-2.5-3.5c0-1.129 0.38942-2.1237 0.98242-2.7637-2.058-0.715-3.9554-0.73633-3.9844-0.73633-0.552-2e-3 -0.99709-0.44995-0.99609-1.002 0-0.551 0.44605-0.99805 0.99805-0.99805zm22 0c0.552 0 0.99705 0.44705 0.99805 0.99805 1e-3 0.552-0.44509 0.99995-0.99609 1.002-0.03 0-1.9264 0.021328-3.9844 0.73633 0.593 0.64 0.98242 1.6347 0.98242 2.7637 0 1.934-1.119 3.5-2.5 3.5s-2.5-1.566-2.5-3.5c0-0.174 0.019156-0.34081 0.035156-0.50781-0.012-1e-6 -0.022156 0.007812-0.035156 0.007812-0.256 0-0.51203-0.097969-0.70703-0.29297-0.391-0.391-0.391-1.0231 0-1.4141 3.256-3.255 8.486-3.293 8.707-3.293zm-11 11.5c6.317 0 7.4394 4.1999 7.4844 4.3789 0.055 0.218-0.042281 0.44464-0.23828 0.55664-0.077 0.043-0.16209 0.064453-0.24609 0.064453-0.128 0-0.25556-0.049531-0.35156-0.14453-0.018001-0.018-1.9544-1.8555-6.6484-1.8555s-6.6294 1.8365-6.6484 1.8555c-0.161 0.156-0.40461 0.18712-0.59961 0.078125-0.194-0.112-0.29133-0.33769-0.23633-0.55469 0.045-0.179 1.1664-4.3789 7.4844-4.3789z" fill="#9aa7b0"/>
</svg>
