<?xml version="1.0" encoding="UTF-8"?>
<svg version="1.1" viewBox="0 0 36 36" xmlns="http://www.w3.org/2000/svg" xmlns:cc="http://creativecommons.org/ns#" xmlns:dc="http://purl.org/dc/elements/1.1/" xmlns:rdf="http://www.w3.org/1999/02/22-rdf-syntax-ns#">
 <path d="m18 0c-9.94 0-18 8.06-18 18 0 9.941 8.06 18 18 18 9.941 0 18-8.059 18-18 0-9.94-8.059-18-18-18zm-5 5c0.552 0 1 0.448 1 1 0 0.551-0.44509 0.998-0.99609 1-0.155 2e-3 -3.5671 0.085609-6.2031 3.5996-0.196 0.262-0.49873 0.40039-0.80273 0.40039-0.208 0-0.41766-0.064219-0.59766-0.19922-0.442-0.331-0.53217-0.95839-0.20117-1.4004 3.262-4.35 7.6168-4.4004 7.8008-4.4004zm10 0c0.184 0 4.5378 0.050391 7.8008 4.4004 0.332 0.442 0.24083 1.0694-0.20117 1.4004-0.18 0.135-0.38866 0.19922-0.59766 0.19922-0.305 0-0.60573-0.13839-0.80273-0.40039-2.64-3.521-6.0601-3.5976-6.2051-3.5996-0.55-6e-3 -0.99324-0.45686-0.99024-1.0059 3e-3 -0.551 0.44609-0.99414 0.99609-0.99414zm-11 6a2.5 3.5 0 0 1 2.5 3.5 2.5 3.5 0 0 1-2.5 3.5 2.5 3.5 0 0 1-2.5-3.5 2.5 3.5 0 0 1 2.5-3.5zm12 0a2.5 3.5 0 0 1 2.5 3.5 2.5 3.5 0 0 1-2.5 3.5 2.5 3.5 0 0 1-2.5-3.5 2.5 3.5 0 0 1 2.5-3.5zm-6 10a5 6 0 0 1 5 6 5 6 0 0 1-5 6 5 6 0 0 1-5-6 5 6 0 0 1 5-6z" fill="#9aa7b0"/>
 <path d="m18 23c-1.657 0-3 1.79-3 4h6c0-2.21-1.343-4-3-4z" fill="#F5F8FA"/>
</svg>
