<?xml version="1.0" encoding="UTF-8"?>
<svg version="1.1" viewBox="0 0 36 36" xmlns="http://www.w3.org/2000/svg" xmlns:cc="http://creativecommons.org/ns#" xmlns:dc="http://purl.org/dc/elements/1.1/" xmlns:rdf="http://www.w3.org/1999/02/22-rdf-syntax-ns#"><metadata><rdf:RDF><cc:Work rdf:about=""><dc:format>image/svg+xml</dc:format><dc:type rdf:resource="http://purl.org/dc/dcmitype/StillImage"/><dc:title/></cc:Work></rdf:RDF></metadata><path d="m17.91 0a18 18 0 0 0-17.91 18 18 18 0 0 0 18 18 18 18 0 0 0 18-18 18 18 0 0 0-18-18 18 18 0 0 0-0.089844 0zm-5.9102 10a2.5 3.5 0 0 1 2.5 3.5 2.5 3.5 0 0 1-2.5 3.5 2.5 3.5 0 0 1-2.5-3.5 2.5 3.5 0 0 1 2.5-3.5zm12 0a2.5 3.5 0 0 1 2.5 3.5 2.5 3.5 0 0 1-2.5 3.5 2.5 3.5 0 0 1-2.5-3.5 2.5 3.5 0 0 1 2.5-3.5zm-13 13c0.128 0 0.25556 0.049531 0.35156 0.14453 0.018001 0.018 1.9544 1.8555 6.6484 1.8555s6.6294-1.8365 6.6484-1.8555c0.161-0.155 0.40461-0.18912 0.59961-0.078125 0.194 0.112 0.29133 0.33769 0.23633 0.55469-0.045 0.179-1.1664 4.3789-7.4844 4.3789-6.317 0-7.4394-4.1999-7.4844-4.3789-0.055-0.218 0.042281-0.44464 0.23828-0.55664 0.077-0.043 0.16209-0.064453 0.24609-0.064453z" fill="#9aa7b0"/></svg>
