<?xml version="1.0" encoding="UTF-8"?>
<svg version="1.1" viewBox="0 0 36 36" xmlns="http://www.w3.org/2000/svg" xmlns:cc="http://creativecommons.org/ns#" xmlns:dc="http://purl.org/dc/elements/1.1/" xmlns:rdf="http://www.w3.org/1999/02/22-rdf-syntax-ns#"><metadata><rdf:RDF><cc:Work rdf:about=""><dc:format>image/svg+xml</dc:format><dc:type rdf:resource="http://purl.org/dc/dcmitype/StillImage"/><dc:title/></cc:Work></rdf:RDF></metadata><path d="m16.994 2a17 17 0 0 0-16.994 17 17 17 0 0 0 17 17 17 17 0 0 0 17-17 17 17 0 0 0-17-17 17 17 0 0 0-0.005859 0zm7.209 12.225c1.4751 0.0495 2.7344 0.53809 3.4609 0.99609 0.467 0.294 0.6075 0.91191 0.3125 1.3789-0.293 0.465-0.907 0.60645-1.375 0.31445-0.138-0.083999-3.0528-1.822-5.8848 0.5-0.186 0.153-0.40981 0.22656-0.63281 0.22656-0.29 0-0.57544-0.12423-0.77344-0.36523-0.35-0.427-0.28933-1.0582 0.13867-1.4082 1.588-1.302 3.2788-1.6921 4.7539-1.6426zm-11.359 2.4492c0.6589-0.030734 1.3634 0.031844 2.1113 0.21484 0.536 0.131 0.86538 0.67298 0.73438 1.209-0.132 0.536-0.67598 0.86142-1.209 0.73242-3.604-0.882-5.5025 2.0559-5.5215 2.0859-0.191 0.302-0.51566 0.4668-0.84766 0.4668-0.182 0-0.3682-0.050296-0.5332-0.1543-0.467-0.294-0.6065-0.91091-0.3125-1.3789 0.74425-1.1806 2.7229-3.0426 5.5781-3.1758zm11.6 3.748c0.2887-0.042984 0.588 0.087266 0.75 0.35352 0.216 0.354 0.10305 0.8133-0.25195 1.0293-0.735 0.448-1.2437 1.5002-1.2637 2.6152-0.02 1.055 0.39014 1.935 1.1191 2.416 0.346 0.228 0.44089 0.69306 0.21289 1.0391-0.144 0.219-0.38295 0.33789-0.62695 0.33789-0.142 0-0.28511-0.041-0.41211-0.125-1.167-0.77-1.819-2.1173-1.791-3.6953 0.028999-1.635 0.80742-3.1531 1.9824-3.8691 0.08825-0.054001 0.18502-0.087235 0.28125-0.10156zm-6.457 3.0781a2 2.5 0 0 1 0.011719 0 2 2.5 0 0 1 2 2.5 2 2.5 0 0 1-2 2.5 2 2.5 0 0 1-2-2.5 2 2.5 0 0 1 1.9883-2.5zm-7.7031 0.058594c1.193 0.074 2.3142 0.73264 3.0742 1.8066 1.011 1.429 1.27 3.3833 0.70898 5.3613-0.093 0.331-0.3947 0.54688-0.7207 0.54688-0.068 0-0.13708-0.010297-0.20508-0.029297-0.398-0.113-0.63058-0.52678-0.51758-0.92578 0.437-1.54 0.25972-3.0289-0.48828-4.0859-0.497-0.702-1.2054-1.1307-1.9434-1.1777-0.414-0.025-0.72912-0.38192-0.70312-0.79492s0.38092-0.75117 0.79492-0.70117z" fill="#9aa7b0"/><path d="M17.179 2.72c-.043-.049-.11-.076-.189-.091 0 0-15.924-3.023-16.613-2.415C-.311.823.74 16.998.74 16.998c.005.081.023.15.067.199.604.684 4.758-2.004 9.279-6.001 4.522-3.998 7.697-7.792 7.093-8.476z" fill="#DD2E44"/><path d="M.349.271C.334.301.321.342.311.394.47 1.765 2.006 13.046 2.963 16.572c1.436-.803 2.895-1.894 4.609-3.253C6.116 10.654 1.158.146.349.271z" fill="#EA596E"/><path d="M29.902 29.229l-10.573-1.303c-1.13-.102-3.117-.112-3.015-1.902.093-1.623 2.04-1.373 3.479-1.16l10.638 1.774-.529 2.591z" fill="#3B88C3"/><path d="M30.43 26.639l-4.222-.724c-.494-.089-.934.647-.956 1.426-.025.866.227 1.304.726 1.406l4.144.512.308-2.62z" fill="#88C9F9"/><path d="M34.918 26.341l-2.622 2.411-4.687-5.097 2.622-2.411c1.361-1.252 3.499-1.162 4.751.199l.135.147c1.251 1.362 1.162 3.499-.199 4.751z" fill="#3B88C3"/><ellipse transform="rotate(-42.597 29.954 26.205)" cx="29.952" cy="26.203" rx="2.77" ry="3.462" fill="#88C9F9"/><ellipse transform="rotate(-42.597 29.954 26.205)" cx="29.952" cy="26.203" rx="1.385" ry="2.077" fill="#269"/><circle cx="2.5" cy="33.5" r="1.5" fill="#55ACEE"/><circle cx="29" cy="2" r="2" fill="#55ACEE"/><path d="M4.864 29.246L2.526 23.63.412 29.675zM26 5l-4 1 1-4z" fill="#EA596E"/><path d="M31.999 13L36 7.999 33 6z" fill="#77B255"/></svg>
